<svg xmlns="http://www.w3.org/2000/svg"><symbol id="cart" viewBox="0 0 554.748 554.748"><path d="M548.873 164.412c4.896 6.12 6.73 13.464 5.508 22.032l-23.256 133.417c-.816 6.938-3.979 12.648-9.486 17.136-5.508 4.488-11.729 6.732-18.666 6.732H163.925l-6.732 37.944H480.33c7.752 0 14.48 2.754 20.195 8.262 5.713 5.508 8.566 12.342 8.566 20.502s-2.854 14.994-8.566 20.502c-5.715 5.508-12.443 8.262-20.195 8.262H122.921c-8.568 0-15.912-3.468-22.032-10.401-5.712-6.938-7.956-14.895-6.732-23.868l15.3-83.232L86.201 87.914 20.105 67.106c-7.752-2.448-13.362-7.141-16.83-14.076-3.468-6.937-4.182-14.28-2.142-22.032 2.448-7.752 7.242-13.362 14.382-16.83s14.382-4.182 21.726-2.142l84.456 26.928c5.304 1.632 9.69 4.692 13.158 9.18 3.468 4.488 5.61 9.589 6.426 15.301l4.896 46.512 383.112 42.84c8.568 1.221 15.096 5.097 19.584 11.625zM166.374 455.113c12.24 0 22.644 4.284 31.212 12.854 8.568 8.565 12.852 18.972 12.852 31.212 0 12.237-4.284 22.746-12.852 31.518-8.568 8.772-18.972 13.158-31.212 13.158s-22.644-4.386-31.212-13.158c-8.568-8.771-12.852-19.278-12.852-31.518s4.284-22.646 12.852-31.212c8.567-8.57 18.971-12.854 31.212-12.854zm261.323 0c12.238 0 22.645 4.284 31.213 12.854 8.564 8.565 12.852 18.972 12.852 31.212 0 12.237-4.285 22.746-12.852 31.518-8.568 8.772-18.975 13.158-31.213 13.158-12.24 0-22.646-4.386-31.211-13.158-8.568-8.771-12.855-19.278-12.855-31.518s4.285-22.646 12.855-31.212c8.567-8.57 18.971-12.854 31.211-12.854z" fill="#010002"/></symbol><symbol id="facebook" viewBox="0 0 96.124 96.123"><path d="M72.089.02L59.624 0C45.62 0 36.57 9.285 36.57 23.656v10.907H24.037a1.96 1.96 0 0 0-1.96 1.961v15.803a1.96 1.96 0 0 0 1.96 1.96H36.57v39.876a1.96 1.96 0 0 0 1.96 1.96h16.352a1.96 1.96 0 0 0 1.96-1.96V54.287h14.654a1.96 1.96 0 0 0 1.96-1.96l.006-15.803a1.963 1.963 0 0 0-1.961-1.961H56.842v-9.246c0-4.444 1.059-6.7 6.848-6.7l8.397-.003a1.96 1.96 0 0 0 1.959-1.96V1.98A1.96 1.96 0 0 0 72.089.02z"/></symbol><symbol id="frappe" viewBox="0 0 512 512"><path fill="#f9ebdb" d="M380.541 212.261l-6.82 80.725L256 348.337l-117.721-55.351-6.82-80.725L256 201.191z"/><path d="M373.721 292.986l-14.768 174.733L256 489.859l-102.954-22.141-14.768-174.733c11.591-4.096 15.033-14.303 32.126-14.303 21.399 0 21.399 15.997 42.798 15.997s21.399-15.997 42.798-15.997 21.399 15.997 42.798 15.997 21.399-15.997 42.798-15.997c17.092.001 20.535 10.208 32.125 14.304z" fill="#c67741"/><path fill="#8e4238" d="M358.954 467.719L355.212 512H156.788l-3.742-44.281z"/><path d="M301.809 63.654h-93.832c-45.521 18.532-77.625 63.211-77.625 115.396l124.541 11.07 124.541-11.07c0-52.185-32.104-96.864-77.625-115.396z" fill="#f9ebdb"/><path d="M321.315 0h-49.816c-13.735 0-24.908 11.173-24.908 24.908v90.485h16.605V24.908c0-4.579 3.724-8.303 8.303-8.303h49.816a8.303 8.303 0 0 0 0-16.605z" fill="#c67741"/><path d="M340.034 179.051l-85.141 11.07-85.141-11.07c0-22.927 18.587-41.514 41.514-41.514.985 0 1.959.044 2.923.111 3.808-19.008 20.58-33.322 40.705-33.322s36.897 14.314 40.705 33.322a42.691 42.691 0 0 1 2.923-.111c22.925 0 41.512 18.587 41.512 41.514z" fill="#fff"/><path fill="#e8d6bd" d="M114.854 179.051h282.292v33.211H114.854z"/></symbol><symbol id="google-plus" viewBox="0 0 491.858 491.858"><path d="M377.472 224.957H201.319v58.718H308.79c-16.032 51.048-63.714 88.077-120.055 88.077-69.492 0-125.823-56.335-125.823-125.824 0-69.492 56.333-125.823 125.823-125.823 34.994 0 66.645 14.289 89.452 37.346l42.622-46.328c-34.04-33.355-80.65-53.929-132.074-53.929C84.5 57.193 0 141.693 0 245.928s84.5 188.737 188.736 188.737c91.307 0 171.248-64.844 188.737-150.989v-58.718l-.001-.001zM491.858 224.857h-36.031v-36.031h-30.886v36.031H388.91v30.883h36.031v36.032h30.886V255.74h36.031z"/></symbol><symbol id="left-chevron" viewBox="0 0 407.436 407.436"><path d="M315.869 21.178L294.621 0 91.566 203.718l203.055 203.718 21.248-21.178-181.945-182.54z"/></symbol><symbol id="menu-button" viewBox="0 0 459 459"><path d="M0 382.5h459v-51H0v51zM0 255h459v-51H0v51zM0 76.5v51h459v-51H0z"/></symbol><symbol id="right-arrow" viewBox="0 0 492.004 492.004"><path d="M382.678 226.804L163.73 7.86C158.666 2.792 151.906 0 144.698 0s-13.968 2.792-19.032 7.86l-16.124 16.12c-10.492 10.504-10.492 27.576 0 38.064L293.398 245.9l-184.06 184.06c-5.064 5.068-7.86 11.824-7.86 19.028 0 7.212 2.796 13.968 7.86 19.04l16.124 16.116c5.068 5.068 11.824 7.86 19.032 7.86s13.968-2.792 19.032-7.86L382.678 265c5.076-5.084 7.864-11.872 7.848-19.088.016-7.244-2.772-14.028-7.848-19.108z"/></symbol><symbol id="right-chevron" viewBox="0 0 407.436 407.436"><path d="M112.814 0L91.566 21.178l181.946 182.54-181.946 182.54 21.248 21.178 203.055-203.718z"/></symbol><symbol id="search" viewBox="0 0 56.966 56.966"><path d="M55.146 51.887L41.588 37.786A22.926 22.926 0 0 0 46.984 23c0-12.682-10.318-23-23-23s-23 10.318-23 23 10.318 23 23 23c4.761 0 9.298-1.436 13.177-4.162l13.661 14.208c.571.593 1.339.92 2.162.92.779 0 1.518-.297 2.079-.837a3.004 3.004 0 0 0 .083-4.242zM23.984 6c9.374 0 17 7.626 17 17s-7.626 17-17 17-17-7.626-17-17 7.626-17 17-17z"/></symbol><symbol id="twitter" viewBox="0 0 511.588 511.588"><path d="M508.508 93.804c-2.794-2.708-6.795-3.601-10.44-2.334l-17.252 5.953c10.162-12.297 17.66-25.14 21.608-37.315a9.618 9.618 0 0 0-2.647-10.006 9.686 9.686 0 0 0-10.275-1.805c-24.194 10.145-45.603 18.979-62.629 24.264-.633.2-1.284.113-1.935-.252-13.572-7.602-47.547-25.062-71.68-24.784-61.032 1.119-110.696 53.274-110.696 116.267v3.445c-89.869-17.399-139.533-43.251-193.31-99.666l-8.4-8.817-5.589 10.821C6.071 126.043 26.768 176.653 60.881 210.74c-15.117-2.317-26.095-7.185-35.337-15.247-3.549-3.072-8.583-3.454-12.54-.937-3.896 2.482-5.675 7.125-4.417 11.55 11.481 40.622 42.227 73.98 74.683 93.913-15.681-.017-28.585-1.762-41.559-10.101-3.775-2.43-8.687-2.178-12.21.607a10.443 10.443 0 0 0-3.35 11.672c15.82 44.431 45.403 67.801 94.425 73.624-25.201 14.735-57.899 26.381-108.952 27.448a11.893 11.893 0 0 0-10.986 8.044C-.958 416 .5 421.033 4.344 424.122c31.024 25.01 100.612 39.945 186.151 39.945 153.123 0 277.695-136.253 277.695-303.729v-2.942c19.812-9.468 34.929-28.151 42.921-53.274 1.163-3.662.165-7.619-2.603-10.318z"/></symbol></svg>